<svg xmlns="http://www.w3.org/2000/svg" width="1070" height="252" viewBox="232 375 1070 252" xmlns:c2pa="http://c2pa.org/manifest"><metadata><c2pa:manifest>AAAWgmp1bWIAAAAeanVtZGMycGEAEQAQgAAAqgA4m3EDYzJwYQAAABZcanVtYgAAAEdqdW1kYzJtYQARABCAAACqADibcQN1cm46YzJwYTo3OTM2YmM1ZC0zMjE1LTQxNDgtOTI0NC03ZmRiNTUyOTUzNTcAAAADl2p1bWIAAAApanVtZGMyYXMAEQAQgAAAqgA4m3EDYzJwYS5hc3NlcnRpb25zAAAAALxqdW1iAAAARGp1bWRjYm9yABEAEIAAAKoAOJtxE2MycGEuaW5ncmVkaWVudC52MwAAAAAYYzJzaH0fjaV5lTRi811Iiz9kHN8AAABwY2JvcqNpZGM6Zm9ybWF0bWltYWdlL3N2Zyt4bWxqaW5zdGFuY2VJRHgseG1wOmlpZDoyMWRhOGY5NS0xYzM0LTQyYjAtODhiNi1mM2Q1ZTc5NTZhMzlscmVsYXRpb25zaGlwaHBhcmVudE9mAAAB4mp1bWIAAABBanVtZGNib3IAEQAQgAAAqgA4m3ETYzJwYS5hY3Rpb25zLnYyAAAAABhjMnNozGubdNbeklRxbx3LfhzByQAAAZljYm9yomdhY3Rpb25zgqJmYWN0aW9ua2MycGEub3BlbmVkanBhcmFtZXRlcnOha2luZ3JlZGllbnRzgaJjdXJseC1zZWxmI2p1bWJmPWMycGEuYXNzZXJ0aW9ucy9jMnBhLmluZ3JlZGllbnQudjNkaGFzaFgguZn8METV/6j3ceeqjnWtSOHQDmMv9sq13nR84FQeqjmkZmFjdGlvbngdY29tLmFudGhyb3BpYy5jbGF1ZGUucHJvdmlkZWRqcGFyYW1ldGVyc6F4H2NvbS5hbnRocm9waWMub3JpZ2luLWNvbmZpZGVuY2VndW5rbm93bmtkZXNjcmlwdGlvbnhmQ2xhdWRlIHByb3ZpZGVkIHRoaXMgZmlsZSBhdCB0aGUgcmVxdWVzdCBvZiBhIHVzZXIgYW5kIG1heSBoYXZlIGNyZWF0ZWQgb3IgbW9kaWZpZWQgdGhlIGZpbGUgY29udGVudHMubXNvZnR3YXJlQWdlbnShZG5hbWVmQ2xhdWRlcmFsbEFjdGlvbnNJbmNsdWRlZPUAAADIanVtYgAAAEBqdW1kY2JvcgARABCAAACqADibcRNjMnBhLmhhc2guZGF0YQAAAAAYYzJzaL4cKk69ehWmeE6LU8udlqoAAACAY2JvcqVjYWxnZnNoYTI1NmNwYWRNAAAAAAAAAAAAAAAAAGRoYXNoWCDyCO4SG3M7+D/BwKvQDMDMW5218I/pY9N9qY/9vU61QmRuYW1lbmp1bWJmIG1hbmlmZXN0amV4Y2x1c2lvbnOBomVzdGFydBicZmxlbmd0aBkeBAAAAj5qdW1iAAAAJ2p1bWRjMmNsABEAEIAAAKoAOJtxA2MycGEuY2xhaW0udjIAAAACD2Nib3KlY2FsZ2ZzaGEyNTZpc2lnbmF0dXJleE1zZWxmI2p1bWJmPS9jMnBhL3VybjpjMnBhOjc5MzZiYzVkLTMyMTUtNDE0OC05MjQ0LTdmZGI1NTI5NTM1Ny9jMnBhLnNpZ25hdHVyZWppbnN0YW5jZUlEeCx4bXA6aWlkOmZmYmZjNzdhLTk1YzYtNGUyZC1iNGRlLTc4YjZiZDU2YWRhZHJjcmVhdGVkX2Fzc2VydGlvbnODomN1cmx4LXNlbGYjanVtYmY9YzJwYS5hc3NlcnRpb25zL2MycGEuaW5ncmVkaWVudC52M2RoYXNoWCC5mfwwRNX/qPdx56qOda1I4dAOYy/2yrXedHzgVB6qOaJjdXJseCpzZWxmI2p1bWJmPWMycGEuYXNzZXJ0aW9ucy9jMnBhLmFjdGlvbnMudjJkaGFzaFggEPq/NtADrwAXsdNSgWTtOrbvgTJ8qpgWy8QDWDSHy6uiY3VybHgpc2VsZiNqdW1iZj1jMnBhLmFzc2VydGlvbnMvYzJwYS5oYXNoLmRhdGFkaGFzaFggLdkuCWjZy8ztyBX4g4t3v127RvCsnLz3vpBFMsnDELJ0Y2xhaW1fZ2VuZXJhdG9yX2luZm+jZG5hbWVvQW50aHJvcGljIEZpbGVzZ3ZlcnNpb25lMS4wLjBrc3BlY1ZlcnNpb25lMi40LjAAABA4anVtYgAAAChqdW1kYzJjcwARABCAAACqADibcQNjMnBhLnNpZ25hdHVyZQAAABAIY2JvctKEWQISogEmGCFZAgowggIGMIIBjaADAgECAhRA5aAK7sI50L64g/oGQgU9Z1UTADAKBggqhkjOPQQDAzBJMRcwFQYDVQQKEw5BbnRocm9waWMsIFBCQzEuMCwGA1UEAxMlQW50aHJvcGljIENvbnRlbnQgQ3JlZGVudGlhbHMgUm9vdCBDQTAeFw0yNjA4MDcxODQzNTZaFw0yODA4MDYxOTQzNTZaMEQxFzAVBgNVBAoTDkFudGhyb3BpYywgUEJDMSkwJwYDVQQDEyBBbnRocm9waWMgQ2xhdWRlIENvbnRlbnQgU2lnbmluZzBZMBMGByqGSM49AgEGCCqGSM49AwEHA0IABJh6CmvLUBgFFNU0vUKlOVtE6djd17L5SuwX0LemFisBM3dkd/3cyjxFA3Qo5S46fX0/ihY0VZ7mfb9KF703t5OjWDBWMA4GA1UdDwEB/wQEAwIHgDAVBgNVHSUEDjAMBgorBgEEAYPoXgIBMAwGA1UdEwEB/wQCMAAwHwYDVR0jBBgwFoAUzlHiBIFOZFsj+OPEz5o+nMHXXMIwCgYIKoZIzj0EAwMDZwAwZAIwMXMdFJ4BetLLVY7ORuE9noqbbAZOZn/aArXyTwFAZfKrPzxF2vPoJNf1+UCdg1XGAjBwX1zd9WGqYkqmL5SFqw1QySjr1zJfpJM9+1rdDwSPLMOPOjKuiXjoU/pUUeG9RwmhY3BhZFkNngAAAAAAAAAAAAAAAAAAAAAAAAAAAAAAAAAAAAAAAAAAAAAAAAAAAAAAAAAAAAAAAAAAAAAAAAAAAAAAAAAAAAAAAAAAAAAAAAAAAAAAAAAAAAAAAAAAAAAAAAAAAAAAAAAAAAAAAAAAAAAAAAAAAAAAAAAAAAAAAAAAAAAAAAAAAAAAAAAAAAAAAAAAAAAAAAAAAAAAAAAAAAAAAAAAAAAAAAAAAAAAAAAAAAAAAAAAAAAAAAAAAAAAAAAAAAAAAAAAAAAAAAAAAAAAAAAAAAAAAAAAAAAAAAAAAAAAAAAAAAAAAAAAAAAAAAAAAAAAAAAAAAAAAAAAAAAAAAAAAAAAAAAAAAAAAAAAAAAAAAAAAAAAAAAAAAAAAAAAAAAAAAAAAAAAAAAAAAAAAAAAAAAAAAAAAAAAAAAAAAAAAAAAAAAAAAAAAAAAAAAAAAAAAAAAAAAAAAAAAAAAAAAAAAAAAAAAAAAAAAAAAAAAAAAAAAAAAAAAAAAAAAAAAAAAAAAAAAAAAAAAAAAAAAAAAAAAAAAAAAAAAAAAAAAAAAAAAAAAAAAAAAAAAAAAAAAAAAAAAAAAAAAAAAAAAAAAAAAAAAAAAAAAAAAAAAAAAAAAAAAAAAAAAAAAAAAAAAAAAAAAAAAAAAAAAAAAAAAAAAAAAAAAAAAAAAAAAAAAAAAAAAAAAAAAAAAAAAAAAAAAAAAAAAAAAAAAAAAAAAAAAAAAAAAAAAAAAAAAAAAAAAAAAAAAAAAAAAAAAAAAAAAAAAAAAAAAAAAAAAAAAAAAAAAAAAAAAAAAAAAAAAAAAAAAAAAAAAAAAAAAAAAAAAAAAAAAAAAAAAAAAAAAAAAAAAAAAAAAAAAAAAAAAAAAAAAAAAAAAAAAAAAAAAAAAAAAAAAAAAAAAAAAAAAAAAAAAAAAAAAAAAAAAAAAAAAAAAAAAAAAAAAAAAAAAAAAAAAAAAAAAAAAAAAAAAAAAAAAAAAAAAAAAAAAAAAAAAAAAAAAAAAAAAAAAAAAAAAAAAAAAAAAAAAAAAAAAAAAAAAAAAAAAAAAAAAAAAAAAAAAAAAAAAAAAAAAAAAAAAAAAAAAAAAAAAAAAAAAAAAAAAAAAAAAAAAAAAAAAAAAAAAAAAAAAAAAAAAAAAAAAAAAAAAAAAAAAAAAAAAAAAAAAAAAAAAAAAAAAAAAAAAAAAAAAAAAAAAAAAAAAAAAAAAAAAAAAAAAAAAAAAAAAAAAAAAAAAAAAAAAAAAAAAAAAAAAAAAAAAAAAAAAAAAAAAAAAAAAAAAAAAAAAAAAAAAAAAAAAAAAAAAAAAAAAAAAAAAAAAAAAAAAAAAAAAAAAAAAAAAAAAAAAAAAAAAAAAAAAAAAAAAAAAAAAAAAAAAAAAAAAAAAAAAAAAAAAAAAAAAAAAAAAAAAAAAAAAAAAAAAAAAAAAAAAAAAAAAAAAAAAAAAAAAAAAAAAAAAAAAAAAAAAAAAAAAAAAAAAAAAAAAAAAAAAAAAAAAAAAAAAAAAAAAAAAAAAAAAAAAAAAAAAAAAAAAAAAAAAAAAAAAAAAAAAAAAAAAAAAAAAAAAAAAAAAAAAAAAAAAAAAAAAAAAAAAAAAAAAAAAAAAAAAAAAAAAAAAAAAAAAAAAAAAAAAAAAAAAAAAAAAAAAAAAAAAAAAAAAAAAAAAAAAAAAAAAAAAAAAAAAAAAAAAAAAAAAAAAAAAAAAAAAAAAAAAAAAAAAAAAAAAAAAAAAAAAAAAAAAAAAAAAAAAAAAAAAAAAAAAAAAAAAAAAAAAAAAAAAAAAAAAAAAAAAAAAAAAAAAAAAAAAAAAAAAAAAAAAAAAAAAAAAAAAAAAAAAAAAAAAAAAAAAAAAAAAAAAAAAAAAAAAAAAAAAAAAAAAAAAAAAAAAAAAAAAAAAAAAAAAAAAAAAAAAAAAAAAAAAAAAAAAAAAAAAAAAAAAAAAAAAAAAAAAAAAAAAAAAAAAAAAAAAAAAAAAAAAAAAAAAAAAAAAAAAAAAAAAAAAAAAAAAAAAAAAAAAAAAAAAAAAAAAAAAAAAAAAAAAAAAAAAAAAAAAAAAAAAAAAAAAAAAAAAAAAAAAAAAAAAAAAAAAAAAAAAAAAAAAAAAAAAAAAAAAAAAAAAAAAAAAAAAAAAAAAAAAAAAAAAAAAAAAAAAAAAAAAAAAAAAAAAAAAAAAAAAAAAAAAAAAAAAAAAAAAAAAAAAAAAAAAAAAAAAAAAAAAAAAAAAAAAAAAAAAAAAAAAAAAAAAAAAAAAAAAAAAAAAAAAAAAAAAAAAAAAAAAAAAAAAAAAAAAAAAAAAAAAAAAAAAAAAAAAAAAAAAAAAAAAAAAAAAAAAAAAAAAAAAAAAAAAAAAAAAAAAAAAAAAAAAAAAAAAAAAAAAAAAAAAAAAAAAAAAAAAAAAAAAAAAAAAAAAAAAAAAAAAAAAAAAAAAAAAAAAAAAAAAAAAAAAAAAAAAAAAAAAAAAAAAAAAAAAAAAAAAAAAAAAAAAAAAAAAAAAAAAAAAAAAAAAAAAAAAAAAAAAAAAAAAAAAAAAAAAAAAAAAAAAAAAAAAAAAAAAAAAAAAAAAAAAAAAAAAAAAAAAAAAAAAAAAAAAAAAAAAAAAAAAAAAAAAAAAAAAAAAAAAAAAAAAAAAAAAAAAAAAAAAAAAAAAAAAAAAAAAAAAAAAAAAAAAAAAAAAAAAAAAAAAAAAAAAAAAAAAAAAAAAAAAAAAAAAAAAAAAAAAAAAAAAAAAAAAAAAAAAAAAAAAAAAAAAAAAAAAAAAAAAAAAAAAAAAAAAAAAAAAAAAAAAAAAAAAAAAAAAAAAAAAAAAAAAAAAAAAAAAAAAAAAAAAAAAAAAAAAAAAAAAAAAAAAAAAAAAAAAAAAAAAAAAAAAAAAAAAAAAAAAAAAAAAAAAAAAAAAAAAAAAAAAAAAAAAAAAAAAAAAAAAAAAAAAAAAAAAAAAAAAAAAAAAAAAAAAAAAAAAAAAAAAAAAAAAAAAAAAAAAAAAAAAAAAAAAAAAAAAAAAAAAAAAAAAAAAAAAAAAAAAAAAAAAAAAAAAAAAAAAAAAAAAAAAAAAAAAAAAAAAAAAAAAAAAAAAAAAAAAAAAAAAAAAAAAAAAAAAAAAAAAAAAAAAAAAAAAAAAAAAAAAAAAAAAAAAAAAAAAAAAAAAAAAAAAAAAAAAAAAAAAAAAAAAAAAAAAAAAAAAAAAAAAAAAAAAAAAAAAAAAAAAAAAAAAAAAAAAAAAAAAAAAAAAAAAAAAAAAAAAAAAAAAAAAAAAAAAAAAAAAAAAAAAAAAAAAAAAAAAAAAAAAAAAAAAAAAAAAAAAAAAAAAAAAAAAAAAAAAAAAAAAAAAAAAAAAAAAAAAAAAAAAAAAAAAAAAAAAAAAAAAAAAAAAAAAAAAAAAAAAAAAAAAAAAAAAAAAAAAAAAAAAAAAAAAAAAAAAAAAAAAAAAAAAAAAAAAAAAAAAAAAAAAAAAAAAAAAAAAAAAAAAAAAAAAAAAAAAAAAAAAAAAAAAAAAAAAAAAAAAAAAAAAAAAAAAAAAAAAAAAAAAAAAAAAAAAAAAAAAAAAAAAAAAAAAAAAAAAAAAAAAAAAAAAAAAAAAAAAAAAAAAAAAAAAAAAAAAAAAAAAAAAAAAAAAAAAAAAAAAAAAAAAAAAAAAAAAAAAAAAAAAAAAAAAAAAAAAAAAAAAAAAAAAAAAAAAAAAAAAAAAAAAAAAAAAAAAAAAAAAAAAAAAAAAAAAAAAAAAAAAAAAAAAAAAAAAAAAAAAAAAAAAAAAAAAAAAAAAAAAAAAAAAAAAAAAAAAAAAAAAAAAAAAAAAAAAAAAAAAAAAAAAAAAAAAAAAAAAAAAAAAAAAAAAAAAAAAAAAAAAAAAAAAAAAAAAAAAAAAAAAAAAAAAAAAAAAAAAAAAAAAAAAAAAAAAAAAAAAAAAAAAAAAAAAAAAAAAAAAAAAAAAAAAAAAAAAAAAAAAAAAAAAAAAAAAAAAAAAAAAAAAAAAAAAAAAAAAAAAAAAAAAAAAAAAAAAAAAAAAAAAAAAAAAAAAAAAAAAAAAAAAAAAAAAAAAAAAAAAAAAAAAAAAAAAAAAAAAAAAAAAAAAAAAAAAAAAAAAAAAAAAAAAAAAAAAAAAAAAAAAAAAAAAAAAAAAAAAAAAAAAAAAAAAAAAAAAAAAAAAAAAAAAAAAAAAAAAAAAAAAAAAAAAAAAAAAAAAAAAAAAAAAAAAAAAAAAAAAAAAAAAAAAAAAAAAAAAAAAAAAAAAAAAAAAAAAAAAAAAAAAAAAAAAAAAAAAAAAAAAAAAAAAAAAAAAAAAAAAAAAAAAAAAAAAAAAAAAAAAAAAAAAAAAAAAAAAAAAAAAAAAAAAAAAAAAAAAAAAAAAAAAAAAAAAAAAAAAAAAAAAAAAAAAAAAAAAAAAAAAAAAAAAAAAAAAAAAAAAAAAAAAAAAAAAAAAAAAAAAAAAAAAAAAAAAAAAAAAAAAAAAAAAAAAAAAAAAAAAAAAAAAAAAAAAAAAAAAAAAAAAAAAAAAAAAAAAAAAAAAAAAAAAAAAAAAAAAAAAAAAAAAAAAAAAAAAAAAAAAAAAAAAAAAAAAAAAAAAAAAAAAAAAAAAAAAAAAAAAAAAAAAAAAAAAAAAAAAAAAAAAAAAAAAAAAAAAAAAAAAAAAAAAAAAAAAAAAAAAAAAAAAPZYQHMF7S8200bl3qHFO6JzqmfuFh9dvdlE17/bzt1CrhxDwQpyT4gLx3hBqOYLh1dh15a4RFhs9hSIyuOxC0yIiVY=</c2pa:manifest></metadata><path fill="#0c4a6d" d="M387.76 450.74c-9.11-9.95-14.33-19.29-13.61-33.42a36 36 0 0 1 12.07-25.12c30.17-26.73 70.03 11.79 34.1 50.62 18.4 14.27 36.02 26.88 39.14 51.92 2.74 22.01-5.94 43.8-19.44 60.83-11.56 14.59-59.62 60.67-77.22 62.95a9.8 9.8 0 0 1-7.78-2.3c-2.2-1.8-3.52-4.23-4.89-6.67-9.46 17.82-23.46 3.98-35.04-3.46a145 145 0 0 1-12.22-8.86c-27.55-22.59-56.02-52.5-61.38-89.23-2.25-15.66 2.12-33.27 11.57-45.82 9.62-12.45 25.19-14.33 39.68-16.02a36 36 0 0 1-8.2-11.95c-6.49-15.1-3.03-37.54 13.74-44.25 18.52-7.42 35.87 4.64 42.47 21.96a38.7 38.7 0 0 1-1 29.88c-4.08 8.67-10.47 13.91-19.38 17.08 10.54 6.66 18.4 14.16 25.74 24.13 12.53-13.08 24.94-24.56 41.64-32.27m-33.02 76.44c-3.32-13.8-8.75-24.54-21.1-31.9-30.75-18.33-58.94-2.08-48.97 34.7 7.16 26.4 23.06 39.84 45.23 53.86 8.3 5.2 15.03 9.76 20.3 18.28 4.95-10.67 13.83-13.84 23.4-19.94 8.3-5.28 14.25-9.84 21.26-16.72 18.03-16.52 33.72-54.95 13.44-74.95-15.15-14.95-41.25-4.05-53.45 9.07 2.23 11.85 3.19 15.81-.11 27.6"/><path fill="#fc9a7b" d="M351.68 545.46c10.03-16.25 18.56-18.98 37.06-19.43 1.74 9.3 2.84 17.04-2.9 25.51a24.5 24.5 0 0 1-15.58 10.27c-3.28.62-8.25.57-10.76-1.59-7.51-6.5 6.28-17.59 9.87-21.57-5.2 2.52-7.16 4.56-10.8 9.02-8.94 13.71.4 30.26-4 40.38-2.15 1.83-1.13 1.4-3.84 1.68-10.64-6.9 11.26-35.33-16.53-51.02 3.73 4.13 13.88 13.6 12.5 19.3-11.46 13.9-34-4.67-33.46-19.07.13-3.52-.75-7.29.82-10.64 2.34-2.16 1.67-1.53 5.17-2.18 16.4-.1 23.46 5.9 32.45 19.34"/><path fill="#5faaf8" d="M387.76 450.74c-9.11-9.95-14.33-19.29-13.61-33.42a36 36 0 0 1 12.07-25.12c30.17-26.73 70.03 11.79 34.1 50.62 18.4 14.27 36.02 26.88 39.14 51.92 2.74 22.01-5.94 43.8-19.44 60.83-11.56 14.59-59.62 60.67-77.22 62.95a9.8 9.8 0 0 1-7.78-2.3c-2.2-1.8-3.52-4.23-4.89-6.67-.2-1.98 0-5.33.07-7.43 4.94-10.67 13.82-13.84 23.4-19.94 8.3-5.28 14.24-9.84 21.25-16.72 18.03-16.52 33.72-54.95 13.44-74.95-15.15-14.95-41.25-4.05-53.45 9.07-2.4-5.81-5.61-11.1-8.73-16.57 12.53-13.08 24.94-24.56 41.65-32.27"/><path fill="#0c4a6d" d="M1203.68 427.55c2.24-.01 10.2.14 10.36 3.12 1.92 37.49 1.19 75.57 1.3 113.18.03 5.81.1 15.01-6.23 16.9-6.28-.9-8.73-6.2-8.65-11.92-18.44 14.85-39.04 16.89-59.1 3.44-48-34.02-.9-105.96 49.1-79.03 3.6 1.94 6.82 4.3 10.12 6.7-.2-11.23-2.07-44.7 3.1-52.39m-28.05 118.64a32.46 32.46 0 1 0-12.96-63.59 32.45 32.45 0 0 0 12.96 63.59m-507.5-77.94c24.57-1.95 18.74 3 37.42 9.1 2.53-2.08 3.82-5.4 6.72-7.05a5.5 5.5 0 0 1 5.08-.28c1.1.43 2.66 1.7 3.1 2.82 3.7 9.27 4.32 75.57.64 83.19a6.6 6.6 0 0 1-4.21 3.55c-2.14.53-4.49-.22-6.23-1.48-3-2.15-3.2-5.23-3.73-8.6l-8.8 5.76a58 58 0 0 1-9.96 4.17 45.8 45.8 0 0 1-35.26-4.05c-10.76-6.05-19.1-16.08-22.4-28.05a47.5 47.5 0 0 1 4.85-36.44c7.57-12.81 18.85-18.94 32.78-22.65m11.74 78.47a32.52 32.52 0 1 0-7.3-64.64 32.52 32.52 0 0 0 7.3 64.64m268.06-116.94c4.99 1.05 8.35 2.46 8.79 8.07.69 8.7.4 17.56.36 26.3q-.15 23.35-.01 46.7c7.52-.38 21.34-2.03 24.37 7.26-.38 9.88-17.23 8.17-23.61 7.77.15 6.38 1.14 27.98-1.69 30.51-17.21 15.45-14.14-22.96-14.08-26.99.18-13.6-52.66 9.43-63-13.92a80 80 0 0 1 7.14-10.94c18-23.46 36.15-47 55.13-69.66 1.73-2.07 4.29-3.75 6.6-5.1m-46.65 81.18 40.73-.21c.07-7 1.13-48.24-.43-52.6-4.8 5.69-40.23 49.1-40.3 52.8M819.5 468.2c12.54-.62 23.3.65 33.38 8.88 9.02 7.36 15.52 19.46 16.5 31.1.28 3.2.01 6.8-2.34 9.24-4.12 4.26-60.4 2.94-69.02 3.04 7.02 24.3 29.4 34.56 50.83 19.7 3.67-3.08 7.82-6.55 12.91-4.7 14.26 13.2-27.12 34.65-54.77 20.46a46.2 46.2 0 0 1-22.94-27.86c-8.48-28.01 8.22-52.3 35.44-59.86m-21.68 38 33.48-.01c7.38.02 15.48.2 22.8.02-4.62-17.79-14.45-24.94-33.08-23.8-13.58 3.95-19.2 10.38-23.2 23.79m200.93-78c2.87-.12 5.4-.17 7.81 1.4 4.73 5.17 2.95 45.65 3.18 56.4 18.61-17.85 37.11-41.24 58.8-55.21 3.15-2.03 10.5 4.4 7.17 9.57-5.9 9.15-14.98 16.55-22.8 24.12a3630 3630 0 0 0-28.11 27.94c14.34 13.66 30 30.18 44.2 44.35 2.19 2.08 4.67 4.32 6.7 6.47 2.92 3.08 10.06 9.33 6.05 13.8-3.9 4.35-8.05 4.28-12.33.73-7.44-6.17-14.3-13.15-21.19-19.93a3465 3465 0 0 1-38.58-38.63c.2 15.28.45 30.51.08 45.79-.14 5.58-.4 15.17-8.51 15.13a5.7 5.7 0 0 1-4.09-1.79c-1.45-1.55-2.36-4.22-2.5-6.3-1.05-16.1-.45-32.36-.34-48.5.14-22.37-.81-44.75.2-67.1.21-4.62 1.09-5.21 4.26-8.25m-429.09 1.14c13.37-1.05 26.64 2.52 38.19 9.26 5.65 3.3 17.23 10.1 16.48 17.74-5.4 12.06-21.32-3.38-29.43-6.8-13.57-5.74-21.46-8.06-35.83-2.96a51.8 51.8 0 0 0-29.33 26.65 54.8 54.8 0 0 0-1.76 41.43c10.4 28.23 40.43 37.19 67.26 27.05 7.45-3.8 18.56-15.33 26.4-12.51.52.58 1.56 1.5 1.63 2.17 1.72 15.85-25.49 27.38-36.36 29.01-18.84 2.83-36.94-.94-51.73-11.64a63 63 0 0 1-25.37-42c-6-41.08 19.22-72.2 59.85-77.4m684.42 39.6c13.55-1.2 28.68 2.45 35.8 16.29.78 1.52.01 2.93-.65 4.3-11.63 9.86-27.7-17.9-41.78-2.7-5.18 5.57-4.74 10.57 2.23 14.9 14.2 8.84 42.35 9.09 44.27 30.54-.2 19.17-16.8 28.4-34.07 28.88-9.35.3-36.4-9.99-29.87-25.54 3.29-7.85 25.55 16.39 34.86 11.6 3.78-1.94 16-5.27 13.75-14.68-6.08-11.53-25.1-11.52-34.99-17.7-24.85-15.53-15.37-38.46 10.45-45.89m-483.37-.69c4.97-.2 10.94.17 13.62 5.17 1.02 8.2-7.44 8.81-12.92 10.04-23.48 5.53-20.36 37.44-20.22 55.77.1 11.47 2.7 19.2-10.66 20.26-7.81-6.58-4.42-72.87-2.79-85.67.2-1.6 2.98-3.95 4.51-4.6 6.4-2.73 8.36 6.27 9.89 10.74 6.61-6.98 9.41-8.87 18.56-11.7m327.78 1.97c6.86-.25 10.47 1.43 10.64 8.83.57 24.84.36 49.82-.02 74.66-.04 3.02-2.3 4.57-4.45 6.28-4.77-.54-8.77-.93-9.38-6.68-.83-7.8-.65-15.67-.7-23.52l-.22-42.4c-.03-8.11-1.31-11.69 4.13-17.17m1.09-39.99a10.15 10.15 0 0 1 12.36 7.02 10.15 10.15 0 1 1-12.36-7.02"/></svg>